<svg width="542.9px" height="174.56000366210938px" xmlns="http://www.w3.org/2000/svg" viewBox="-21.44999999999999 -12.28000183105469 542.9 174.56000366210938" style="background: rgba(0, 0, 0, 0);" preserveAspectRatio="xMidYMid"><defs><filter id="editing-hole" x="-100%" y="-100%" width="300%" height="300%"><feFlood flood-color="#000000" result="black"></feFlood><feMorphology operator="dilate" radius="2" in="SourceGraphic" result="erode"></feMorphology><feGaussianBlur in="erode" stdDeviation="4" result="blur"></feGaussianBlur><feOffset in="blur" dx="2" dy="2" result="offset"></feOffset><feComposite operator="atop" in="offset" in2="black" result="merge"></feComposite><feComposite operator="in" in="merge" in2="SourceGraphic" result="inner-shadow"></feComposite></filter></defs><g filter="url(#editing-hole)"><g transform="translate(59.02502250671387, 108.60000610351562)"><path d="M68.80-2.56L73.92-2.56L73.92 0L59.71 0L54.40-5.31L54.40-35.84L49.92-35.84L45.44-31.36L45.44-2.56L49.28-2.56L49.28 0L30.72 0L30.72-35.84L26.24-35.84L21.76-31.36L21.76-2.56L25.60-2.56L25.60 0L1.92 0L1.92-2.56L7.04-2.56L7.04-35.84L1.92-35.84L1.92-38.40L15.81-38.40L20.35-33.92L24.83-38.40L39.49-38.40L44.03-33.92L48.51-38.40L62.85-38.40L68.80-32.45L68.80-2.56ZM114.37-38.40L120.32-32.45L120.32 10.05L114.37 16L86.59 16L81.28 10.69L81.28 3.20L96 3.20L96 13.44L105.60 13.44L105.60-6.91L102.53-3.84L88.19-3.84L82.24-9.79L82.24-35.84L77.12-35.84L77.12-38.40L90.69-38.40L96.64-32.45L96.64-6.40L101.12-6.40L105.60-10.88L105.60-35.84L101.12-35.84L101.12-38.40L114.37-38.40ZM124.80 0L165.95 0L165.95-14.72L163.07-14.72L163.07-2.56L144.64-2.56L144.64-24.96L161.15-24.96L161.15-27.52L144.64-27.52L144.64-48.64L163.07-48.64L163.07-36.48L165.95-36.48L165.95-51.20L124.80-51.20L124.80-48.64L129.92-48.64L129.92-2.56L124.80-2.56L124.80 0ZM217.73-38.40L217.73-35.84L213.38-35.84L201.73 0L187.07 0L175.42-35.84L171.07-35.84L171.07-38.40L194.69-38.40L194.69-35.84L190.08-35.84L200.19-4.74L210.30-35.84L205.70-35.84L205.70-38.40L217.73-38.40ZM222.21-5.95L228.16 0L253.06 0L259.01-5.95L257.02-7.94L251.65-2.56L236.93-2.56L236.93-16L252.74-16L258.69-21.95L258.69-32.45L252.74-38.40L228.16-38.40L222.21-32.45L222.21-5.95ZM236.93-18.56L236.93-35.84L243.97-35.84L243.97-18.56L236.93-18.56ZM306.05-2.56L311.17-2.56L311.17 0L296.64 0L291.33-5.31L291.33-35.84L286.85-35.84L282.37-31.36L282.37-2.56L285.57-2.56L285.57 0L262.53 0L262.53-2.56L267.65-2.56L267.65-35.84L262.53-35.84L262.53-38.40L276.42-38.40L280.96-33.92L285.44-38.40L300.10-38.40L306.05-32.45L306.05-2.56ZM340.22-7.94L342.21-5.95L336.26 0L323.52 0L317.57-5.95L317.57-46.72L313.09-46.72L313.09-49.28L326.02-49.28L331.33-43.97L331.33-34.56L340.29-34.56L340.29-32L331.33-32L331.33-2.56L334.85-2.56L340.22-7.94ZM347.33 0.64L350.21 0.64L350.21-4.35L354.56 0L374.72 0L380.03-5.31L380.03-13.06L358.53-35.84L370.75-35.84L376.51-30.08L376.51-25.28L379.39-25.28L379.39-39.04L376.51-39.04L376.51-34.05L372.16-38.40L353.28-38.40L347.97-33.09L347.97-25.34L369.47-2.56L355.97-2.56L350.21-8.32L350.21-13.12L347.33-13.12L347.33 0.64Z" fill="#0b0000"></path></g></g><style>text {
  font-size: 64px;
  font-family: Arial Black;
  dominant-baseline: central;
  text-anchor: middle;
}</style></svg>