<svg width="425.85499267578126px" height="120.8px" xmlns="http://www.w3.org/2000/svg" viewBox="37.07250366210937 14.600000000000001 425.85499267578126 120.8" style="background: rgba(0, 0, 0, 0);" preserveAspectRatio="xMidYMid"><defs><filter id="editing-metal-beveled"><feGaussianBlur stdDeviation="4" in="SourceAlpha" result="blur"></feGaussianBlur><feSpecularLighting surfaceScale="5" specularConstant="0.8" specularExponent="7.5" lighting-color="#fff" in="blur" result="specular"><fePointLight x="-250" y="-50" z="300"></fePointLight></feSpecularLighting><feComposite operator="in" in="specular" in2="SourceAlpha" result="comp"></feComposite><feComposite in="SourceGraphic" in2="comp" operator="arithmetic" k1="0" k2="1" k3="1" k4="0"></feComposite></filter></defs><g filter="url(#editing-metal-beveled)"><g transform="translate(101.67706084251404, 102.55000305175781)"><path d="M47.17 1.28L47.17 1.28L47.17 1.28Q39.42 1.28 39.42-4.74L39.42-4.74L39.42-4.74Q39.42-7.36 40.54-12.45L40.54-12.45L40.54-12.45Q41.66-17.54 42.05-19.58L42.05-19.58L42.05-19.58Q42.94-24.26 42.94-25.73L42.94-25.73L42.94-25.73Q42.94-28.99 40.51-28.99L40.51-28.99L40.51-28.99Q38.91-28.99 37.38-26.78L37.38-26.78L37.38-26.78Q35.84-24.58 35.14-20.16L35.14-20.16L31.17 0L18.69 1.28L22.14-16.13L22.14-16.13Q22.72-19.01 23.23-22.27L23.23-22.27L23.23-22.27Q23.74-25.54 23.74-26.05L23.74-26.05L23.74-26.05Q23.74-28.99 21.57-28.99L21.57-28.99L21.57-28.99Q20.10-28.99 18.50-26.82L18.50-26.82L18.50-26.82Q16.90-24.64 16-20.16L16-20.16L12.10 0L-0.51 1.28L6.21-32.64L16.64-33.92L15.55-27.46L15.55-27.46Q17.22-30.91 20.29-32.42L20.29-32.42L20.29-32.42Q23.36-33.92 28.16-33.92L28.16-33.92L28.16-33.92Q30.91-33.92 32.70-32.58L32.70-32.58L32.70-32.58Q34.50-31.23 35.07-29.06L35.07-29.06L35.07-29.06Q36.16-31.30 38.94-32.61L38.94-32.61L38.94-32.61Q41.73-33.92 45.15-33.92L45.15-33.92L45.15-33.92Q48.58-33.92 50.27-33.18L50.27-33.18L50.27-33.18Q51.97-32.45 52.99-31.23L52.99-31.23L52.99-31.23Q54.72-28.99 54.72-24.90L54.72-24.90L54.72-24.90Q54.72-20.86 52.99-12.48L52.99-12.48L52.99-12.48Q52.10-8.38 52.10-6.88L52.10-6.88L52.10-6.88Q52.10-5.38 52.96-4.48L52.96-4.48L52.96-4.48Q53.82-3.58 55.10-3.46L55.10-3.46L55.10-3.46Q54.46-1.28 52.26 0L52.26 0L52.26 0Q50.05 1.28 47.17 1.28ZM80.38-7.23L80.38-7.23L80.38-7.23Q77.06-3.78 70.98-3.78L70.98-3.78L70.98-3.78Q63.36-3.78 61.76-9.34L61.76-9.34L61.76-9.34Q61.25-11.01 61.25-12.86L61.25-12.86L61.25-12.86Q61.25-14.72 61.63-16.64L61.63-16.64L64.64-32.64L77.63-33.92L74.11-15.30L74.11-15.30Q73.98-14.46 73.79-13.57L73.79-13.57L73.79-13.57Q73.60-12.67 73.60-11.74L73.60-11.74L73.60-11.74Q73.60-10.82 73.92-10.21L73.92-10.21L73.92-10.21Q74.24-9.60 74.69-9.22L74.69-9.22L74.69-9.22Q75.46-8.70 76.83-8.70L76.83-8.70L76.83-8.70Q78.21-8.70 79.39-10.37L79.39-10.37L79.39-10.37Q80.58-12.03 81.15-14.91L81.15-14.91L84.67-32.64L97.28-33.92L92.48-8.77L92.48-8.77Q90.11 3.52 85.25 8.38L85.25 8.38L85.25 8.38Q82.75 10.88 79.52 11.87L79.52 11.87L79.52 11.87Q76.29 12.86 72.13 12.86L72.13 12.86L72.13 12.86Q65.41 12.86 61.57 10.75L61.57 10.75L61.57 10.75Q57.73 8.64 57.73 5.12L57.73 5.12L57.73 5.12Q57.73 2.50 59.71 0.99L59.71 0.99L59.71 0.99Q61.70-0.51 64.77-0.51L64.77-0.51L64.77-0.51Q67.46-0.51 69.50 0.64L69.50 0.64L69.50 0.64Q70.72 1.34 71.30 2.24L71.30 2.24L71.30 2.24Q69.82 3.52 69.82 5.63L69.82 5.63L69.82 5.63Q69.82 8.45 72.38 8.45L72.38 8.45L72.38 8.45Q76.61 8.45 79.04-1.28L79.04-1.28L79.04-1.28Q79.74-4.16 80.38-7.23ZM126.91-9.86L126.91-9.86L126.91-9.86Q128.13-8.32 128.13-5.82L128.13-5.82L128.13-5.82Q128.13-2.37 125.57-0.54L125.57-0.54L125.57-0.54Q123.01 1.28 118.98 1.28L118.98 1.28L118.98 1.28Q116.67 1.28 113.15 0.77L113.15 0.77L113.15 0.77Q106.24-0.32 104.13-0.32L104.13-0.32L104.13-0.32Q102.02-0.32 101.18-0.22L101.18-0.22L101.18-0.22Q100.35-0.13 99.01 0L99.01 0L106.88-42.24L134.46-42.24L134.46-42.24Q134.46-38.34 132.58-36.29L132.58-36.29L132.58-36.29Q130.69-34.24 126.98-34.24L126.98-34.24L126.98-34.24Q123.26-34.24 119.49-35.97L119.49-35.97L117.50-24.77L128.90-24.77L128.90-24.77Q128.90-21.38 127.23-19.49L127.23-19.49L127.23-19.49Q125.57-17.60 122.78-17.60L122.78-17.60L122.78-17.60Q120.00-17.60 118.27-18.24L118.27-18.24L118.27-18.24Q116.54-18.88 116.35-19.07L116.35-19.07L114.05-6.98L114.05-6.98Q115.58-6.78 118.46-6.78L118.46-6.78L118.46-6.78Q123.39-6.78 126.91-9.86ZM157.25-31.55L157.25-31.55L157.25-31.55Q159.36-33.92 163.01-33.92L163.01-33.92L163.01-33.92Q165.25-33.92 166.98-32.70L166.98-32.70L166.98-32.70Q168.70-31.49 168.70-29.22L168.70-29.22L168.70-29.22Q168.70-26.94 168-24.51L168-24.51L168-24.51Q167.30-22.08 166.21-19.58L166.21-19.58L166.21-19.58Q164.03-14.72 161.02-10.69L161.02-10.69L161.02-10.69Q156.80-4.86 152.74-1.79L152.74-1.79L152.74-1.79Q148.67 1.28 144.26 1.28L144.26 1.28L144.26 1.28Q140.67 1.28 138.50 0.45L138.50 0.45L138.50 0.45Q138.11-12.99 137.63-17.79L137.63-17.79L137.63-17.79Q137.15-22.59 136.77-25.22L136.77-25.22L136.77-25.22Q136.13-30.34 134.21-31.55L134.21-31.55L134.21-31.55Q135.68-32.83 137.12-33.38L137.12-33.38L137.12-33.38Q138.56-33.92 141.54-33.92L141.54-33.92L141.54-33.92Q144.51-33.92 146.62-31.58L146.62-31.58L146.62-31.58Q148.74-29.25 149.15-25.12L149.15-25.12L149.15-25.12Q149.57-20.99 149.57-16L149.57-16L149.57-16Q149.57-11.01 149.18-4.99L149.18-4.99L149.18-4.99Q151.17-6.40 153.28-10.69L153.28-10.69L153.28-10.69Q156.16-16.64 157.18-23.81L157.18-23.81L157.18-23.81Q157.50-25.98 157.50-28.29L157.50-28.29L157.50-28.29Q157.50-30.59 157.25-31.55ZM196.35-10.82L196.35-10.82L196.35-10.82Q197.95-9.73 197.95-7.33L197.95-7.33L197.95-7.33Q197.95-4.93 196.74-3.39L196.74-3.39L196.74-3.39Q195.52-1.86 193.54-0.83L193.54-0.83L193.54-0.83Q189.44 1.28 185.02 1.28L185.02 1.28L185.02 1.28Q180.61 1.28 178.02 0.32L178.02 0.32L178.02 0.32Q175.42-0.64 173.70-2.43L173.70-2.43L173.70-2.43Q170.30-5.82 170.30-12.03L170.30-12.03L170.30-12.03Q170.30-21.70 175.55-27.58L175.55-27.58L175.55-27.58Q181.18-33.92 190.98-33.92L190.98-33.92L190.98-33.92Q197.06-33.92 200.06-31.36L200.06-31.36L200.06-31.36Q202.30-29.44 202.30-26.30L202.30-26.30L202.30-26.30Q202.30-15.04 182.85-15.04L182.85-15.04L182.85-15.04Q182.59-13.38 182.59-11.97L182.59-11.97L182.59-11.97Q182.59-9.02 183.90-7.90L183.90-7.90L183.90-7.90Q185.22-6.78 187.65-6.78L187.65-6.78L187.65-6.78Q190.08-6.78 192.67-7.90L192.67-7.90L192.67-7.90Q195.26-9.02 196.35-10.82ZM183.30-17.79L183.30-17.79L183.30-17.79Q187.84-17.79 190.46-20.61L190.46-20.61L190.46-20.61Q193.09-23.30 193.09-27.58L193.09-27.58L193.09-27.58Q193.09-29.06 192.54-29.86L192.54-29.86L192.54-29.86Q192-30.66 190.91-30.66L190.91-30.66L190.91-30.66Q189.82-30.66 188.90-30.24L188.90-30.24L188.90-30.24Q187.97-29.82 187.01-28.42L187.01-28.42L187.01-28.42Q184.64-25.22 183.30-17.79ZM231.55 1.28L231.55 1.28L231.55 1.28Q223.81 1.28 223.81-4.74L223.81-4.74L223.81-4.74Q223.87-6.40 224.38-9.22L224.38-9.22L225.54-15.10L225.54-15.10Q227.26-23.42 227.26-25.28L227.26-25.28L227.26-25.28Q227.26-28.99 225.09-28.99L225.09-28.99L225.09-28.99Q221.44-28.99 219.52-19.46L219.52-19.46L215.74 0L202.88 1.28L209.54-32.70L220.03-33.92L219.01-27.65L219.01-27.65Q222.02-33.92 231.23-33.92L231.23-33.92L231.23-33.92Q235.71-33.92 237.60-32.03L237.60-32.03L237.60-32.03Q239.49-30.14 239.49-25.92L239.49-25.92L239.49-25.92Q239.49-21.95 237.44-12.67L237.44-12.67L237.44-12.67Q236.48-8.51 236.48-6.94L236.48-6.94L236.48-6.94Q236.48-5.38 237.34-4.48L237.34-4.48L237.34-4.48Q238.21-3.58 239.49-3.46L239.49-3.46L239.49-3.46Q238.85-1.28 236.64 0L236.64 0L236.64 0Q234.43 1.28 231.55 1.28ZM245.63-6.40L245.63-6.40L245.63-6.40Q245.63-8.13 246.53-12.48L246.53-12.48L249.92-29.76L246.14-29.76L246.40-31.68L246.40-31.68Q254.08-33.98 261.50-39.62L261.50-39.62L264.58-39.62L263.04-32.64L268.03-32.64L267.46-29.76L262.53-29.76L259.26-12.48L259.26-12.48Q258.43-8.51 258.43-7.17L258.43-7.17L258.43-7.17Q258.43-4.10 261.12-3.46L261.12-3.46L261.12-3.46Q260.48-1.28 258.18 0L258.18 0L258.18 0Q255.87 1.28 252.61 1.28L252.61 1.28L252.61 1.28Q249.34 1.28 247.49-0.77L247.49-0.77L247.49-0.77Q245.63-2.82 245.63-6.40ZM286.85-22.46L286.85-22.46L286.85-22.46Q287.74-24.83 287.74-26.88L287.74-26.88L287.74-26.88Q287.74-30.66 284.67-30.66L284.67-30.66L284.67-30.66Q283.07-30.66 281.76-29.22L281.76-29.22L281.76-29.22Q280.45-27.78 280.45-25.98L280.45-25.98L280.45-25.98Q280.45-24.70 281.47-23.68L281.47-23.68L281.47-23.68Q282.94-22.27 286.72-19.97L286.72-19.97L286.72-19.97Q290.50-17.66 291.94-15.78L291.94-15.78L291.94-15.78Q293.38-13.89 293.38-11.30L293.38-11.30L293.38-11.30Q293.38-8.70 292.13-6.34L292.13-6.34L292.13-6.34Q290.88-3.97 288.64-2.30L288.64-2.30L288.64-2.30Q283.84 1.28 276.16 1.28L276.16 1.28L276.16 1.28Q272.00 1.28 268.80-0.90L268.80-0.90L268.80-0.90Q265.60-3.01 265.60-5.50L265.60-5.50L265.60-5.50Q265.60-8 267.42-9.47L267.42-9.47L267.42-9.47Q269.25-10.94 271.94-10.94L271.94-10.94L271.94-10.94Q274.62-10.94 276.29-9.92L276.29-9.92L276.29-9.92Q275.46-7.81 275.46-6.40L275.46-6.40L275.46-6.40Q275.46-2.18 279.04-2.18L279.04-2.18L279.04-2.18Q280.58-2.18 281.60-3.14L281.60-3.14L281.60-3.14Q282.62-4.10 282.62-5.76L282.62-5.76L282.62-5.76Q282.62-9.02 277.12-12.48L277.12-12.48L277.12-12.48Q272.64-15.42 271.62-16.58L271.62-16.58L271.62-16.58Q269.89-18.62 269.89-21.18L269.89-21.18L269.89-21.18Q269.89-23.74 271.10-26.18L271.10-26.18L271.10-26.18Q272.32-28.61 274.56-30.34L274.56-30.34L274.56-30.34Q279.23-33.92 287.36-33.92L287.36-33.92L287.36-33.92Q291.52-33.92 293.98-32.26L293.98-32.26L293.98-32.26Q296.45-30.59 296.45-27.78L296.45-27.78L296.45-27.78Q296.45-24.96 294.75-23.36L294.75-23.36L294.75-23.36Q293.06-21.76 289.98-21.76L289.98-21.76L289.98-21.76Q287.87-21.76 286.85-22.46Z" fill="#444"></path></g></g><style>text {
  font-size: 64px;
  font-family: Arial Black;
  dominant-baseline: central;
  text-anchor: middle;
}</style></svg>